<?xml version="1.0" encoding="UTF-8" standalone="no"?>
<svg
   version="1.1"
   width="513.95172"
   height="506.79541"
   id="svg1"
   sodipodi:docname="inkscape-icon.svg"
   inkscape:version="1.3.2 (091e20e, 2023-11-25, custom)"
   xmlns:inkscape="http://www.inkscape.org/namespaces/inkscape"
   xmlns:sodipodi="http://sodipodi.sourceforge.net/DTD/sodipodi-0.dtd"
   xmlns="http://www.w3.org/2000/svg"
   xmlns:svg="http://www.w3.org/2000/svg">
  <defs
     id="defs1" />
  <sodipodi:namedview
     id="namedview1"
     pagecolor="#ffffff"
     bordercolor="#000000"
     borderopacity="0.25"
     inkscape:showpageshadow="2"
     inkscape:pageopacity="0.0"
     inkscape:pagecheckerboard="0"
     inkscape:deskcolor="#d1d1d1"
     inkscape:zoom="1.5371094"
     inkscape:cx="255.67471"
     inkscape:cy="252.74714"
     inkscape:window-width="1920"
     inkscape:window-height="1001"
     inkscape:window-x="-9"
     inkscape:window-y="-9"
     inkscape:window-maximized="1"
     inkscape:current-layer="svg1" />
  <path
     d="m 426.9379,390.05005 c 0,9.5947 74.49658,15.07743 70.38327,-2.28445 -5.94147,-29.24103 -62.15662,-26.95657 -70.38327,2.28445 z m -317.63865,50.71491 c 16.91026,14.62048 42.50416,-3.19824 50.73076,-23.75833 -16.45321,-21.47388 -77.238743,1.37069 -50.73076,23.75833 z m 308.49799,-30.6117 c -21.02356,19.18943 3.65628,39.29264 24.22281,26.04279 5.48441,-3.65515 -0.45703,-21.47388 -24.22281,-26.04279 z M 358.83978,341.61948 C 403.62915,310.09415 568.16144,294.10294 492.29376,218.25902 L 297.14023,18.597569 c -24.22278,-22.8445076 -63.98471,-22.8445076 -86.37941,0 L 22.462831,211.40572 c -71.297347,71.27495 46.160386,65.33528 88.664599,92.29195 19.65242,12.79297 -63.070822,29.24099 -46.160387,46.14581 16.453064,16.90512 99.176297,32.43951 115.629637,48.88754 16.45307,16.90485 -33.36349,34.72357 -16.91043,51.6287 15.99625,16.90484 54.38719,0.91363 61.24274,39.29254 5.02716,28.32736 70.38315,14.16366 99.63339,-10.05155 18.28143,-15.53439 -31.5354,-15.53439 -15.08206,-32.43924 41.13293,-41.57715 77.69577,-18.73263 92.77786,-57.11154 8.2265,-20.5599 -62.15665,-35.18039 -43.4184,-48.43045 z m -162.136,-12.90802 c -12.09012,-5.44253 -32.22174,-0.92508 -42.42248,-8.41492 -6.4715,-4.75143 3.91397,-6.07653 21.50291,-8.36898 25.48769,-3.32196 64.82921,9.63446 71.51932,13.07876 6.68982,3.44428 7.52842,5.55368 7.52842,5.55368 6.56472,25.77234 -29.10859,11.21482 -58.12817,-1.84854 z m 129.2296,-225.58888 -7.31265,44.3183 -30.62122,-16.44802 -49.81656,31.52533 -16.45334,-66.249185 -26.50795,57.568355 -66.26989,-0.4568 c -12.79689,0 -10.96881,-13.25006 2.28517,-26.49985 26.05087,-28.784177 76.7816,-77.671428 92.77786,-94.576266 16.45334,-16.905117 45.24649,-16.448306 61.69952,0 l 74.49674,75.843906 c 6.85553,6.8533 6.85553,21.01698 2.74225,25.12885 z"
     id="path1" />
</svg>
