<?xml version="1.0" encoding="UTF-8" standalone="no"?>
<!-- Generator: Adobe Illustrator 18.1.1, SVG Export Plug-In . SVG Version: 6.00 Build 0)  -->

<svg
   version="1.1"
   id="Capa_1"
   x="0px"
   y="0px"
   viewBox="0 0 96.243965 95.146133"
   xml:space="preserve"
   sodipodi:docname="paintbrush-icon.svg"
   width="96.243965"
   height="95.146133"
   inkscape:version="1.3.2 (091e20e, 2023-11-25, custom)"
   xmlns:inkscape="http://www.inkscape.org/namespaces/inkscape"
   xmlns:sodipodi="http://sodipodi.sourceforge.net/DTD/sodipodi-0.dtd"
   xmlns="http://www.w3.org/2000/svg"
   xmlns:svg="http://www.w3.org/2000/svg"><defs
   id="defs16" /><sodipodi:namedview
   id="namedview16"
   pagecolor="#ffffff"
   bordercolor="#000000"
   borderopacity="0.25"
   inkscape:showpageshadow="2"
   inkscape:pageopacity="0.0"
   inkscape:pagecheckerboard="0"
   inkscape:deskcolor="#d1d1d1"
   inkscape:zoom="8.1979167"
   inkscape:cx="47.939009"
   inkscape:cy="47.817027"
   inkscape:window-width="1920"
   inkscape:window-height="1001"
   inkscape:window-x="-9"
   inkscape:window-y="-9"
   inkscape:window-maximized="1"
   inkscape:current-layer="Capa_1" />
<g
   id="g1"
   transform="translate(0,-0.12198221)">
	<path
   style="fill:#030104"
   d="m 11.815,65.812 c -7.569,7.44 -1.176,15.079 -11.235,26.403 -4.54,5.113 18.69,3.554 30.199,-7.76 4.882,-4.798 3.505,-11.793 -1.731,-16.941 -5.236,-5.148 -12.352,-6.5 -17.233,-1.702 z M 95.701,1.293 C 91.815,-2.524 48.806,31.94 36.002,44.528 c -6.354,6.246 -8.476,9.595 -10.424,12.1 -0.847,1.087 0.272,1.424 0.776,1.681 2.517,1.281 4.277,2.475 6.553,4.712 2.277,2.237 3.492,3.968 4.795,6.441 0.261,0.496 0.604,1.597 1.708,0.766 C 41.96,68.313 45.365,66.227 51.719,59.98 64.524,47.392 99.583,5.111 95.701,1.293 Z"
   id="path1" />
</g>
<g
   id="g2"
   transform="translate(0,-0.12198221)">
</g>
<g
   id="g3"
   transform="translate(0,-0.12198221)">
</g>
<g
   id="g4"
   transform="translate(0,-0.12198221)">
</g>
<g
   id="g5"
   transform="translate(0,-0.12198221)">
</g>
<g
   id="g6"
   transform="translate(0,-0.12198221)">
</g>
<g
   id="g7"
   transform="translate(0,-0.12198221)">
</g>
<g
   id="g8"
   transform="translate(0,-0.12198221)">
</g>
<g
   id="g9"
   transform="translate(0,-0.12198221)">
</g>
<g
   id="g10"
   transform="translate(0,-0.12198221)">
</g>
<g
   id="g11"
   transform="translate(0,-0.12198221)">
</g>
<g
   id="g12"
   transform="translate(0,-0.12198221)">
</g>
<g
   id="g13"
   transform="translate(0,-0.12198221)">
</g>
<g
   id="g14"
   transform="translate(0,-0.12198221)">
</g>
<g
   id="g15"
   transform="translate(0,-0.12198221)">
</g>
<g
   id="g16"
   transform="translate(0,-0.12198221)">
</g>
</svg>
