<?xml version="1.0" encoding="UTF-8" standalone="no"?>
<svg
   width="31.064804"
   height="31.146126"
   viewBox="0 0 31.064804 31.146125"
   version="1.1"
   id="svg1"
   sodipodi:docname="telegram-icon.svg"
   inkscape:version="1.3.2 (091e20e, 2023-11-25, custom)"
   xmlns:inkscape="http://www.inkscape.org/namespaces/inkscape"
   xmlns:sodipodi="http://sodipodi.sourceforge.net/DTD/sodipodi-0.dtd"
   xmlns="http://www.w3.org/2000/svg"
   xmlns:svg="http://www.w3.org/2000/svg">
  <defs
     id="defs1" />
  <sodipodi:namedview
     id="namedview1"
     pagecolor="#ffffff"
     bordercolor="#000000"
     borderopacity="0.25"
     inkscape:showpageshadow="2"
     inkscape:pageopacity="0.0"
     inkscape:pagecheckerboard="0"
     inkscape:deskcolor="#d1d1d1"
     inkscape:zoom="24.59375"
     inkscape:cx="15.532402"
     inkscape:cy="15.552732"
     inkscape:window-width="1920"
     inkscape:window-height="1001"
     inkscape:window-x="-9"
     inkscape:window-y="-9"
     inkscape:window-maximized="1"
     inkscape:current-layer="svg1" />
  <path
     d="m 15.552732,0.09339263 c -8.5630001,0 -15.50000011,6.93799997 -15.50000011,15.50000037 0,8.562 6.93800001,15.5 15.50000011,15.5 8.563,0 15.5,-6.938 15.5,-15.5 0,-8.5620004 -6.938,-15.50000037 -15.5,-15.50000037 z m 7.613,10.61900037 -2.544,11.988 c -0.188,0.85 -0.694,1.056 -1.4,0.656 l -3.875,-2.856 -1.869,1.8 c -0.206,0.206 -0.381,0.381 -0.781,0.381 l 0.275,-3.944 7.181,-6.488 c 0.313,-0.275 -0.069,-0.431 -0.482,-0.156 l -8.875,5.587 -3.8250001,-1.194 c -0.831,-0.262 -0.85,-0.831 0.175,-1.231 L 22.089732,9.4923926 c 0.694,-0.25 1.3,0.169 1.075,1.2190004 z"
     id="path1" />
</svg>
